<svg xmlns="http://www.w3.org/2000/svg" viewBox="0 0 416.95 122"><defs><style>.cls-1{fill:#215096;}.cls-2{fill:#58cc65;}.cls-3{fill:#ff6961;}.cls-4{fill:#f6b092;}.cls-5{fill:#fa0;}.cls-6{fill:#b19cd9;}</style></defs><g id="Layer_2" data-name="Layer 2"><g id="Layer_1-2" data-name="Layer 1"><path class="cls-1" d="M157.51,53.56a17.51,17.51,0,0,1-7-7.38A24.13,24.13,0,0,1,148.05,35a24.16,24.16,0,0,1,2.46-11.21,17.43,17.43,0,0,1,7-7.35,23.42,23.42,0,0,1,21.37,0,17.49,17.49,0,0,1,7,7.35A24.16,24.16,0,0,1,188.34,35a24.13,24.13,0,0,1-2.46,11.21,17.57,17.57,0,0,1-7,7.38,23.18,23.18,0,0,1-21.37,0Zm18.79-8.11q3-3.63,3-10.48t-2.93-10.45a11,11,0,0,0-16.25,0q-2.9,3.6-2.9,10.45t2.93,10.48a10.84,10.84,0,0,0,16.19,0Z"/><path class="cls-1" d="M196.53,54.76a4.5,4.5,0,0,1-1.23-3.33V18.63a4.29,4.29,0,0,1,1.12-3.16,4.27,4.27,0,0,1,3.16-1.11h14.7q6.74,0,10.48,3.39t3.75,9.49q0,6.09-3.75,9.49t-10.48,3.39h-9.84V51.43a4.73,4.73,0,0,1-7.91,3.33ZM220,27.3q0-6-6.85-6h-8.67V33.21h8.67Q220,33.21,220,27.3Z"/><path class="cls-1" d="M157.53,105.59a17.32,17.32,0,0,1-7-7.38A24.31,24.31,0,0,1,148.05,87a24.16,24.16,0,0,1,2.46-11.21,17.42,17.42,0,0,1,7-7.35,23.07,23.07,0,0,1,23.9,1.64,4.54,4.54,0,0,1,1.23,1.4,4,4,0,0,1,.35,1.76,4.15,4.15,0,0,1-.85,2.61,2.57,2.57,0,0,1-2.08,1.08,4.4,4.4,0,0,1-1.43-.21,5.48,5.48,0,0,1-1.38-.73,20,20,0,0,0-4.33-2.19,13.28,13.28,0,0,0-4.28-.68q-5.62,0-8.46,3.49T157.36,87q0,13.94,11.3,13.94a12.33,12.33,0,0,0,4.1-.68A25.62,25.62,0,0,0,177.27,98a8.16,8.16,0,0,1,1.46-.73,4,4,0,0,1,1.35-.21,2.57,2.57,0,0,1,2.08,1.08,4.17,4.17,0,0,1,.85,2.61,3.91,3.91,0,0,1-.38,1.79,4.45,4.45,0,0,1-1.2,1.37,23.07,23.07,0,0,1-23.9,1.64Z"/><path class="cls-1" d="M190,106.53a4.29,4.29,0,0,1-1.11-3.16V70.63a3.87,3.87,0,0,1,4.28-4.27h20.73q4.33,0,4.33,3.51t-4.33,3.57H197.82v9.67h14.94c2.88,0,4.33,1.19,4.33,3.57s-1.45,3.51-4.33,3.51H197.82v10.37h16.11q4.33,0,4.33,3.57t-4.33,3.51H193.2A4.31,4.31,0,0,1,190,106.53Z"/><path class="cls-1" d="M258.28,67.32a4.53,4.53,0,0,1,1.2,3.25v32.86a4.57,4.57,0,0,1-1.2,3.3,4.12,4.12,0,0,1-3.13,1.26,4.23,4.23,0,0,1-3.4-1.52L232.14,81.35v22.08a4.71,4.71,0,0,1-1.14,3.3,4,4,0,0,1-3.08,1.26,4,4,0,0,1-3.1-1.26,4.64,4.64,0,0,1-1.17-3.3V70.57a4.53,4.53,0,0,1,1.2-3.25A4.15,4.15,0,0,1,228,66.07a4,4,0,0,1,3.34,1.52l19.62,24.94v-22a4.55,4.55,0,0,1,1.17-3.25,4,4,0,0,1,3-1.25A4.15,4.15,0,0,1,258.28,67.32Z"/><path class="cls-1" d="M278.49,106.7a4.35,4.35,0,0,1-1.26-3.27V73.8h-9.49q-4.33,0-4.33-3.75t4.33-3.69h28.11q4.33,0,4.33,3.69t-4.33,3.75h-9.49v29.63a4.4,4.4,0,0,1-1.23,3.27,5.1,5.1,0,0,1-6.64,0Z"/><path class="cls-1" d="M338.83,104.36a3.31,3.31,0,0,1-1.32,2.7,4.89,4.89,0,0,1-5.24.52,4.37,4.37,0,0,1-1.76-1.64l-7.73-11.47a6.86,6.86,0,0,0-2.1-2.2,5.36,5.36,0,0,0-2.81-.67h-4.75v11.83a4.56,4.56,0,0,1-1.2,3.33,4.33,4.33,0,0,1-3.25,1.23,4.24,4.24,0,0,1-4.57-4.56V70.63a3.88,3.88,0,0,1,4.28-4.27h14.7q7.26,0,11,3.19t3.72,9.22a11.94,11.94,0,0,1-2.64,7.91,12.7,12.7,0,0,1-7.44,4.16,7.73,7.73,0,0,1,3.14,1.37,12.06,12.06,0,0,1,2.66,3l4.45,6.67A4.45,4.45,0,0,1,338.83,104.36Zm-11.42-21a5.13,5.13,0,0,0,1.76-4.3,5.14,5.14,0,0,0-1.76-4.34q-1.76-1.33-5.68-1.34H313V84.69h8.72Q325.66,84.69,327.41,83.31Z"/><path class="cls-1" d="M383.51,104a3.53,3.53,0,0,1-1.32,2.78,4.43,4.43,0,0,1-3,1.15,3.93,3.93,0,0,1-2.11-.62,3.83,3.83,0,0,1-1.52-1.84l-3.11-6.91H352.59l-3.1,6.91a3.86,3.86,0,0,1-3.63,2.46,4.55,4.55,0,0,1-3.05-1.15,3.5,3.5,0,0,1-1.35-2.78,4.75,4.75,0,0,1,.47-1.87l15.81-33.2a4.6,4.6,0,0,1,1.94-2.14,5.56,5.56,0,0,1,5.56,0,5.19,5.19,0,0,1,2,2.11L383,102.08A4.75,4.75,0,0,1,383.51,104ZM355.7,91.6h13.64l-6.79-15.23Z"/><path class="cls-1" d="M389.66,106.53a4.29,4.29,0,0,1-1.12-3.16V70.57a4.37,4.37,0,0,1,1.24-3.27,5.14,5.14,0,0,1,6.67,0,4.4,4.4,0,0,1,1.23,3.27V100.2h15q4.27,0,4.28,3.75t-4.28,3.69H392.82A4.27,4.27,0,0,1,389.66,106.53Z"/><path class="cls-1" d="M61,112A51,51,0,1,1,91.12,19.88a5,5,0,0,0,6.49-.49h0a5,5,0,0,0-.53-7.54A61,61,0,1,0,61,122a60.65,60.65,0,0,0,36-11.8,5,5,0,0,0,.61-7.59h0a5,5,0,0,0-6.48-.5A50.7,50.7,0,0,1,61,112Z"/><path class="cls-2" d="M112,61a50.66,50.66,0,0,1-8.36,27.93,5,5,0,0,0,.67,6.23h0a5,5,0,0,0,7.67-.72,60.84,60.84,0,0,0,0-66.9,5,5,0,0,0-7.67-.72h0a5,5,0,0,0-.67,6.23A50.66,50.66,0,0,1,112,61Z"/><circle class="cls-3" cx="61.09" cy="38.89" r="7.36"/><circle class="cls-4" cx="37.79" cy="55.63" r="7.36"/><circle class="cls-2" cx="46.51" cy="82.96" r="7.36"/><circle class="cls-5" cx="75.2" cy="83.11" r="7.36"/><circle class="cls-6" cx="84.21" cy="55.87" r="7.36"/></g></g></svg>